<svg width="99" height="36" viewBox="0 0 99 36" fill="none" xmlns="http://www.w3.org/2000/svg">
<g clip-path="url(#clip0_3922_548)">
<path fill-rule="evenodd" clip-rule="evenodd" d="M18.6954 0.0288554C18.5021 0.0288554 18.3116 0 18.1183 0C13.3973 0.0271183 8.87198 1.88981 5.49984 5.19397C5.36133 5.14492 5.23437 5.09298 5.23437 5.09298C5.06701 4.91985 4.7294 4.75826 4.39179 4.41776C3.79076 4.14974 3.17057 3.92693 2.53639 3.7512C2.19878 3.91856 3.21161 4.26194 3.38474 4.4293C3.54344 4.7698 3.54344 4.7698 3.88394 4.93139C4.22443 5.09298 4.05418 5.44213 4.89965 5.44213C4.98044 5.48253 5.04392 5.54312 5.1276 5.58929C1.88628 8.85438 0.0466482 13.2552 0 17.8557C0 23.9817 3.23758 29.522 8.05643 32.823L7.92946 33.0741C7.7621 33.2414 7.59763 33.4088 7.42738 33.5761C7.25713 33.5761 6.58192 33.7493 6.75216 34.0782C6.75216 34.4245 7.25713 34.6092 7.7621 34.9439C7.82066 35.0168 7.90036 35.0699 7.99026 35.0957C8.08015 35.1215 8.17584 35.1189 8.26419 35.0882C8.43732 34.915 8.43732 34.7448 8.43732 34.413C8.51797 34.1189 8.6302 33.8345 8.77204 33.5646L8.90478 33.3424C11.6871 35.0545 14.8861 35.9698 18.1529 35.9885C18.5598 35.9885 18.9609 35.9509 19.362 35.9221H90.8743L98.2959 0.0288554H18.6954ZM92.1439 2.9144C92.061 3.11252 91.9492 3.29728 91.8121 3.46265C91.6745 3.6234 91.5118 3.7608 91.3302 3.86951C91.1483 3.97688 90.9547 4.06305 90.7531 4.12632C90.5536 4.17961 90.3479 4.20677 90.1414 4.20712C89.9461 4.20932 89.7515 4.18208 89.5643 4.12632C89.3969 4.06954 89.2414 3.98249 89.1055 3.86951C88.9808 3.75654 88.8823 3.61768 88.8169 3.46265C88.7511 3.29289 88.7264 3.10996 88.7448 2.92882L92.1439 2.9144ZM84.4886 4.19558L82.0157 14.6643H79.3812L81.8541 4.19558H84.4886ZM75.6791 4.19558L73.7573 12.3155H74.6951C74.9353 12.3177 75.175 12.2955 75.4107 12.2491C75.6504 12.2005 75.8851 12.13 76.1119 12.0385C76.3458 11.9423 76.5464 11.7798 76.689 11.571C76.8626 11.2979 76.983 10.9944 77.0439 10.6765C77.0958 10.475 77.1162 10.2667 77.1045 10.059C77.0924 9.86677 77.0434 9.67867 76.9602 9.50497C76.8846 9.33302 76.7478 9.19525 76.5765 9.11831C76.3603 9.02335 76.1257 8.978 75.8897 8.98557H75.6704C75.6035 8.99215 75.537 9.00275 75.4713 9.01731C75.4136 9.03174 75.353 9.04905 75.2866 9.07214L75.0933 9.14716C75.0933 9.14716 75.076 9.16448 75.0702 9.17313H75.0356C75.0356 9.17313 75.0154 9.19045 75.0067 9.19333C75.0011 9.1951 74.9951 9.1951 74.9894 9.19333L75.5406 6.85604C75.5529 6.85299 75.5658 6.85299 75.5781 6.85604C75.5977 6.85366 75.6164 6.84675 75.6329 6.83584H75.656C75.6704 6.83584 75.6762 6.83584 75.6819 6.82142H75.757C75.7847 6.817 75.8119 6.80925 75.8378 6.79833C75.8579 6.7886 75.8792 6.7818 75.9012 6.77813L75.9734 6.75794C75.9984 6.75935 76.0234 6.75935 76.0484 6.75794L76.1205 6.74062C76.1993 6.71753 76.2808 6.70492 76.3629 6.70311L76.588 6.68291C76.6544 6.68291 76.7438 6.66271 76.8275 6.65983C76.9112 6.65694 77.0006 6.65983 77.0872 6.65983C77.589 6.65005 78.087 6.74846 78.5473 6.94838C78.9439 7.13551 79.2755 7.43698 79.4995 7.81404C79.7247 8.20544 79.8644 8.64013 79.9093 9.08945C79.9538 9.62266 79.9059 10.1596 79.7679 10.6765C79.6571 11.1896 79.4826 11.6869 79.2485 12.1568C79.0581 12.5412 78.8 12.8882 78.4867 13.1811C78.2196 13.4428 77.9299 13.6803 77.621 13.891C77.3513 14.0741 77.0607 14.2242 76.7554 14.3382C76.5436 14.4137 76.3278 14.4773 76.109 14.5287C75.9186 14.5701 75.7259 14.5999 75.5319 14.6181L75.0587 14.6441C74.9467 14.6583 74.8339 14.6651 74.7211 14.6643H70.5717L73.0417 4.19558H75.6791ZM68.497 4.19558C68.8737 4.18783 69.2497 4.23349 69.6137 4.3312C69.8824 4.39928 70.1277 4.53888 70.3235 4.73517C70.4802 4.90312 70.615 5.09024 70.7246 5.29208C70.8309 5.48012 70.8958 5.68868 70.915 5.90381C70.9276 5.99366 70.9334 6.08434 70.9323 6.17506C70.9323 6.26739 70.9323 6.35684 70.9323 6.43764C70.9323 6.51843 70.915 6.60789 70.9035 6.6858C70.892 6.76371 70.8746 6.8445 70.8573 6.91953C70.7908 7.17542 70.6939 7.42245 70.5688 7.65534C70.451 7.86854 70.3022 8.06303 70.1273 8.23245C69.9615 8.39327 69.7851 8.54269 69.5992 8.6797C69.4348 8.8006 69.2589 8.90499 69.0741 8.99134H69.0567V9.00577V9.03751C69.3362 9.15358 69.5909 9.32205 69.807 9.53382C69.9812 9.71756 70.1028 9.94481 70.159 10.1917C70.212 10.4403 70.2391 10.6936 70.2398 10.9477C70.2332 11.2178 70.1944 11.4861 70.1244 11.747C70.0424 12.1202 69.8928 12.4752 69.6829 12.7945C69.4611 13.146 69.1933 13.4663 68.8865 13.7467C68.5261 14.0579 68.1044 14.2899 67.6486 14.4277C67.1187 14.585 66.5681 14.6618 66.0154 14.6557H61.2485L63.7272 4.18692L68.497 4.19558ZM54.0491 5.34979C54.5855 4.89956 55.1956 4.54522 55.8525 4.30234C56.4812 4.06845 57.1468 3.94921 57.8176 3.9503C58.4305 3.93695 59.039 4.05708 59.6008 4.30234C60.1137 4.53349 60.5566 4.89578 60.8849 5.35268C61.2578 5.85181 61.4828 6.44576 61.5341 7.06669C61.5991 7.85973 61.5278 8.65805 61.3235 9.42706C61.1424 10.2546 60.8338 11.0489 60.4088 11.7817C59.679 13.0471 58.5327 14.0201 57.1654 14.5345C56.5382 14.7612 55.876 14.8755 55.209 14.8721C54.5928 14.8858 53.9806 14.7709 53.4113 14.5345C52.8938 14.306 52.4415 13.9519 52.0955 13.5043C51.7321 12.9964 51.5191 12.3964 51.4809 11.773C51.4269 10.9815 51.501 10.1864 51.7002 9.4184C51.8878 8.59233 52.1929 7.79744 52.6063 7.05803C52.9743 6.40045 53.4639 5.81879 54.0491 5.34402V5.34979ZM49.1581 4.1898H51.7983L49.3254 14.6585H46.688L47.9 9.50208H45.3607L45.9147 7.1446H48.4598L49.1581 4.1898ZM43.4851 4.1898H46.1196L43.6496 14.6585H41.0122L43.4851 4.1898ZM31.5361 4.57647C31.8679 4.24174 33.3915 3.731 33.5559 3.731C33.8907 3.89836 32.7076 4.24174 32.5402 4.40911C32.5402 4.7496 32.5402 4.7496 32.0353 5.08432C31.865 5.08432 31.865 5.42193 31.1927 5.42193L30.6848 5.08432C30.9884 4.95241 31.2735 4.7817 31.5332 4.57647H31.5361ZM18.1154 0.735813C22.5059 0.77433 26.7125 2.5045 29.8596 5.56621C28.6852 6.11735 27.0058 6.34819 25.2946 7.28022L24.7926 7.79096C24.1202 7.96121 23.6124 7.96121 23.1016 8.13145C22.7698 8.29881 22.4264 8.80955 22.0888 8.97114C21.7512 9.13273 21.4165 8.97114 21.0818 9.14139C20.827 9.26718 20.598 9.43942 20.4065 9.64925C19.7342 9.64925 19.5668 9.31164 19.059 9.14139V8.46329L19.3937 7.95255C19.3937 7.95255 19.665 5.77397 18.8916 5.35556C18.6348 5.20797 18.3438 5.1303 18.0476 5.1303C17.7514 5.1303 17.4604 5.20797 17.2036 5.35556C16.4274 5.75954 16.6928 7.95255 16.6928 7.95255L17.0247 8.46329V9.13273C16.3495 9.30298 16.1763 9.64059 15.6771 9.64059C15.4227 9.51568 15.1945 9.3433 15.0048 9.13273C14.497 8.96249 14.1622 9.13273 13.992 8.96249C13.4899 8.8009 13.3197 8.29016 12.8089 8.1228C12.4742 7.95255 11.8047 7.95255 11.294 7.7823C9.92049 6.56749 8.00737 6.16063 6.28182 5.47387C9.48502 2.45704 13.7124 0.766079 18.1125 0.741584L18.1154 0.735813ZM20.3546 15.7464C20.6056 15.0683 21.1222 14.3671 21.2203 13.5765C21.9197 14.0495 22.4938 14.6853 22.8934 15.4291C23.293 16.173 23.506 17.0027 23.5143 17.8471C23.5092 19.0293 23.1349 20.1804 22.4437 21.1395C22.4437 21.1395 22.4437 21.1395 22.4437 21.1222C22.0484 20.3229 21.5781 19.6159 21.1164 18.8599C21.2227 18.5626 21.2859 18.2517 21.3039 17.9365C21.3077 17.5272 21.2272 17.1215 21.0673 16.7447C20.9075 16.3679 20.6717 16.0281 20.3748 15.7464H20.3546ZM20.2825 16.4476C20.6083 16.8719 20.7884 17.3901 20.7961 17.925C20.7813 18.0222 20.7611 18.1186 20.7355 18.2135C20.469 17.6607 20.315 17.0604 20.2825 16.4476ZM20.32 22.9112C19.6252 23.2433 18.8653 23.4168 18.0952 23.419C17.2642 23.4121 16.4459 23.2147 15.7031 22.8419C15.8618 22.5534 16.0119 22.2648 16.1879 21.9532L16.5284 21.6156C16.7688 21.4034 17.032 21.2185 17.3132 21.0644C17.5393 21.1357 17.7725 21.1822 18.0087 21.2029C18.264 21.1827 18.516 21.1313 18.7589 21.05C19.049 21.2115 19.32 21.405 19.5668 21.6271L19.7342 21.9647C19.9247 22.2821 20.1266 22.6024 20.3113 22.9198L20.32 22.9112ZM14.9269 18.8945C14.4623 19.5986 13.9429 20.2738 13.5534 21.0096C12.8844 20.0857 12.5203 18.9762 12.5117 17.8355C12.5169 17.1391 12.666 16.4513 12.9495 15.8153C13.233 15.1792 13.6449 14.6086 14.1593 14.1391C14.3814 13.926 14.6218 13.7329 14.8778 13.562C14.9615 14.3729 15.3972 15.0798 15.6079 15.7724C15.323 16.0516 15.0972 16.3853 14.944 16.7537C14.7909 17.122 14.7134 17.5174 14.7163 17.9163C14.7323 18.2506 14.7994 18.5805 14.9154 18.8945H14.9269ZM15.6829 16.488C15.7318 17.0901 15.6172 17.6943 15.3511 18.2366C15.3338 18.2655 15.3136 18.2914 15.2991 18.3174C15.262 18.186 15.235 18.0519 15.2183 17.9163C15.2231 17.3976 15.3895 16.8932 15.6945 16.4735L15.6829 16.488ZM8.43732 32.0555L8.38827 32.1507C7.50098 31.5365 6.67048 30.8441 5.9067 30.0818C2.63195 26.852 0.772286 22.455 0.735813 17.8557C0.777658 13.3901 2.58107 9.12166 5.75377 5.97884C7.24848 7.01763 8.37672 8.42289 10.7948 9.13273C11.8134 10.1456 12.1481 10.1456 13.1581 10.4803C13.8333 10.9853 14.6759 11.3286 14.6759 12.001L14.7711 12.7801C13.8771 13.2896 13.1308 14.0226 12.6052 14.9073C12.0797 15.792 11.7929 16.798 11.773 17.8269C11.7859 19.2685 12.2955 20.6616 13.2158 21.7714C13.0398 22.236 12.8753 22.7236 12.6387 23.295L12.1481 24.8156C11.8134 25.312 11.3027 25.8227 10.9651 26.3219C10.1196 27.5107 9.61751 29.0199 9.11254 30.5406C8.94517 31.0426 8.61045 31.5505 8.43732 32.0584V32.0555ZM18.1529 35.2613C15.0193 35.2482 11.9503 34.3683 9.28567 32.7191C9.96377 31.0369 11.1353 29.8625 11.975 28.5178C12.4828 27.8455 12.6531 27.1731 12.9907 26.4979C13.4986 25.8256 14.1709 25.1475 14.6759 24.478C14.9197 24.1603 15.1378 23.8235 15.328 23.471C16.1845 23.9115 17.1321 24.1457 18.0952 24.1549C19.0117 24.1504 19.9145 23.9331 20.7326 23.52C20.949 23.8403 21.1626 24.1577 21.4165 24.478C21.9272 25.1504 22.5909 25.6553 22.9372 26.4979C24.1202 28.8554 25.462 30.7108 26.8096 32.7393V32.7595C24.2122 34.3812 21.2149 35.2485 18.1529 35.2642V35.2613ZM28.1658 35.0997C27.9926 35.2642 27.8281 35.0997 27.6579 35.0997V34.4245C27.5933 34.1245 27.4782 33.8376 27.3174 33.5761C27.6579 33.4088 27.8281 33.2414 28.1658 33.0741C28.172 33.2047 28.2265 33.3284 28.3187 33.4212C28.411 33.5139 28.5343 33.5691 28.665 33.5761C28.8381 33.7493 29.5133 33.7493 29.3402 34.0782C29.167 34.4072 28.5005 34.7563 28.1658 35.0997V35.0997ZM30.1856 30.1048C29.4099 30.8916 28.5627 31.6045 27.655 32.2344V32.2344C27.3387 31.6901 27.0554 31.1274 26.8067 30.5492C26.3046 29.0285 25.967 27.8541 25.1215 26.5095C24.7926 25.8256 24.1202 25.3148 23.95 24.8156L23.2748 23.2921C23.1758 22.7873 23.0219 22.2948 22.816 21.8233C23.7371 20.6928 24.246 19.2823 24.2587 17.824C24.2483 16.7848 23.9651 15.7665 23.4374 14.8712C22.9097 13.9759 22.1561 13.2348 21.252 12.7223V12.001C21.252 11.3286 22.4264 10.9853 22.9372 10.4803C23.9471 10.1456 24.2876 10.1456 25.2946 9.13273C26.9827 8.46329 28.1802 7.61783 29.5133 6.605L30.1827 6.10003C30.226 6.05675 30.2664 6.03655 30.3126 5.99615C33.4521 9.16372 35.2326 13.4307 35.2757 17.8903C35.248 22.4707 33.4209 26.8566 30.1885 30.102L30.1856 30.1048ZM50.1767 31.9458H35.9019L36.6752 28.8208H45.8801L47.8163 21.1077H47.0574C46.49 21.0981 45.9246 21.176 45.3809 21.3386C44.9373 21.4683 44.5296 21.6983 44.1892 22.0109C43.8745 22.2969 43.5928 22.6173 43.3495 22.966C43.1268 23.2917 42.9428 23.6423 42.8012 24.0106C42.7313 24.157 42.6696 24.3073 42.6165 24.4607C42.5627 24.6068 42.5183 24.7562 42.4838 24.908C42.4649 25.0054 42.4408 25.1017 42.4117 25.1965C42.3857 25.2831 42.3684 25.3726 42.3395 25.4678C42.3302 25.5107 42.3187 25.5531 42.3049 25.5947C42.3049 25.6323 42.2876 25.6698 42.276 25.7102V25.7679C42.276 25.7679 42.253 25.7881 42.253 25.7938V25.8227C42.2552 25.8419 42.2552 25.8612 42.253 25.8804C42.2454 25.8839 42.2392 25.8897 42.235 25.897C42.2309 25.9042 42.2291 25.9125 42.2299 25.9208V25.9699C42.1948 26.0987 42.1688 26.2298 42.152 26.3623C42.1318 26.4864 42.1145 26.6249 42.0943 26.7634C42.097 26.8047 42.097 26.8461 42.0943 26.8875C42.09 26.9277 42.09 26.9684 42.0943 27.0087C42.0798 27.0952 42.0741 27.1789 42.0625 27.2482C42.051 27.3174 42.0625 27.4011 42.0625 27.4819C42.0488 27.5503 42.042 27.6199 42.0423 27.6896C42.0423 27.7618 42.0423 27.8282 42.0423 27.8916V28.209H38.3488C38.3354 28.1751 38.3285 28.1388 38.3286 28.1023V27.857C38.3286 27.8044 38.3354 27.752 38.3488 27.7012C38.3488 27.5281 38.3488 27.3376 38.3748 27.1241C38.4008 26.9105 38.4123 26.6884 38.4325 26.446C38.4527 26.2036 38.4902 25.9497 38.5422 25.69C38.5941 25.4303 38.646 25.1706 38.7182 24.8936C38.7701 24.706 38.8394 24.5069 38.8884 24.2962C38.9375 24.0856 39.024 23.8692 39.1077 23.6297C39.1874 23.3811 39.2838 23.1381 39.3963 22.9025C39.5055 22.6571 39.6289 22.4182 39.7656 22.1869C40.0691 21.6527 40.4238 21.1492 40.8246 20.6836C41.2769 20.1784 41.7807 19.7219 42.328 19.3216C42.9296 18.8614 43.616 18.5241 44.3479 18.329C45.2153 18.1022 46.1089 17.9915 47.0054 18H52.3726L49.663 28.8381H51.0164L50.1767 31.9458ZM59.4912 31.9458L61.9901 21.9561C61.8342 22.0455 61.6842 22.1407 61.5255 22.2446C61.3668 22.3485 61.1994 22.4495 61.0349 22.562L60.5357 22.9083C60.3684 23.0266 60.1953 23.1622 60.0164 23.295L59.7278 23.5143C59.6412 23.5806 59.546 23.6528 59.4537 23.7307C59.36 23.7932 59.2703 23.8616 59.1853 23.9356L58.9141 24.1635C58.7323 24.3078 58.562 24.4521 58.3918 24.6108C58.2215 24.7695 58.0542 24.8993 57.8955 25.0638C57.8031 25.1417 57.7252 25.2196 57.6387 25.2946C57.5521 25.3697 57.4771 25.4649 57.3992 25.5515L57.2751 25.6582C57.2366 25.7015 57.1952 25.742 57.151 25.7794C57.041 25.8854 56.9388 25.9992 56.8451 26.1199C56.7586 26.2296 56.6605 26.3421 56.5566 26.4517L55.1831 31.9343H51.4809L54.9667 17.9711H58.6775L57.7454 21.6993C57.832 21.6271 57.9157 21.5406 58.008 21.4569L58.2966 21.1885L58.5851 20.9288C58.6881 20.8347 58.796 20.7461 58.9083 20.6634C59.0728 20.5306 59.2373 20.3921 59.4162 20.2536C59.5951 20.1151 59.774 19.9651 59.9615 19.8352C60.1491 19.7054 60.3222 19.5668 60.4982 19.4399C60.6743 19.3129 60.8705 19.1917 61.0551 19.0705C61.2398 18.9493 61.387 18.8455 61.5572 18.7387C61.7275 18.6319 61.8977 18.5338 62.0593 18.4501C62.2209 18.3665 62.3796 18.2655 62.521 18.1876C62.6624 18.1096 62.8096 18.0433 62.974 17.9769H66.6848L63.1933 31.9487L59.4912 31.9458ZM70.4216 27.6348C70.5521 27.9132 70.7244 28.1701 70.9323 28.3966C71.1275 28.6001 71.3596 28.7646 71.6162 28.8814L72.0115 29.0199C72.1476 29.0689 72.2864 29.1103 72.4271 29.144L72.7993 29.1786C72.9133 29.1919 73.0279 29.1987 73.1427 29.1988H73.3591C73.4403 29.1992 73.5214 29.1925 73.6015 29.1786C73.6769 29.1798 73.7522 29.174 73.8265 29.1613L74.0776 29.1266C74.1699 29.1064 74.2738 29.092 74.3661 29.0747C74.4724 29.0601 74.5775 29.0379 74.6807 29.0083C74.7268 29.0083 74.7788 28.9881 74.8365 28.9766C74.8836 28.9574 74.9331 28.9447 74.9836 28.9391C75.0327 28.9189 75.076 28.9102 75.1337 28.89C75.1817 28.8698 75.2308 28.8524 75.2809 28.8381L74.5075 31.9631C74.2969 31.9891 74.0805 32.0208 73.8612 32.0555C73.6419 32.0901 73.4226 32.1247 73.1917 32.1536C72.9609 32.1824 72.6983 32.1997 72.4357 32.2228C72.1731 32.2459 71.8586 32.2488 71.5701 32.2488C70.5723 32.2797 69.5787 32.1069 68.6499 31.7409C67.9325 31.4536 67.3433 30.9166 66.9907 30.2289C66.6501 29.556 66.4266 28.83 66.3299 28.0821C66.2311 27.2921 66.2584 26.4915 66.4107 25.7102C66.4166 25.6458 66.4282 25.5821 66.4453 25.5197C66.4453 25.4562 66.4684 25.3899 66.4742 25.3293C66.5016 25.2663 66.522 25.2005 66.5348 25.1331C66.5348 25.0696 66.555 25.0003 66.5665 24.9397C67.0592 22.8989 68.1855 21.0665 69.7839 19.7054C70.5708 19.0332 71.4773 18.5154 72.4559 18.1789C73.478 17.8327 74.5509 17.6601 75.63 17.6682C75.8536 17.6654 76.0771 17.676 76.2995 17.6999C76.5072 17.7201 76.7121 17.7345 76.9112 17.7605C77.1103 17.7865 77.3007 17.8211 77.4883 17.8557C77.6759 17.8903 77.8374 17.9365 78.0019 17.9856L77.2459 21.0125C77.1276 20.9865 77.0093 20.9461 76.891 20.9115C76.7727 20.8769 76.6313 20.8567 76.4957 20.8365C76.3601 20.8163 76.2071 20.7845 76.0455 20.7643C75.8827 20.7462 75.7188 20.7385 75.555 20.7413C74.9372 20.7352 74.3227 20.8328 73.7371 21.0298C73.1871 21.2198 72.6787 21.5137 72.2395 21.8955C71.7935 22.2776 71.4117 22.7286 71.1084 23.2315C70.7906 23.7606 70.5542 24.3345 70.4072 24.934C70.2605 25.4483 70.1848 25.9803 70.1821 26.5152C70.1732 26.903 70.2553 27.2874 70.4216 27.6377V27.6348ZM90.7935 18.4242C90.6839 18.5742 90.5627 18.7127 90.4386 18.8743L90.2193 19.1052C90.1529 19.1715 90.0866 19.2494 90.0087 19.3216C89.9456 19.4118 89.872 19.4942 89.7894 19.5668C89.7172 19.6448 89.648 19.7227 89.5729 19.7948C89.2844 20.0834 88.9958 20.3459 88.6813 20.6114C88.3668 20.8769 88.0523 21.1424 87.7291 21.3934C87.4078 21.6476 87.0725 21.8836 86.7249 22.1004C86.3931 22.3052 86.0728 22.4899 85.7525 22.6515C86.0226 23.0802 86.2673 23.5244 86.4854 23.9817C86.705 24.4513 86.8977 24.933 87.0625 25.4245C87.2183 25.9352 87.3511 26.4344 87.4925 26.9394C87.6339 27.4444 87.7175 27.9436 87.7954 28.4572C87.8416 28.7458 87.882 29.0632 87.8993 29.3459C87.9166 29.6287 87.9397 29.9432 87.9513 30.2318C87.9628 30.5204 87.9917 30.8089 87.9917 31.0975C87.9917 31.386 87.9917 31.6601 87.9513 31.9631H84.1366C84.1654 31.3941 84.1654 30.8239 84.1366 30.2549C84.1107 29.7212 84.0314 29.1915 83.9 28.6736C83.7817 28.1571 83.6518 27.6839 83.5046 27.2453C83.3633 26.8218 83.2006 26.4057 83.017 25.9987C82.9564 25.8487 82.8987 25.7102 82.8237 25.5486C82.7604 25.4066 82.6901 25.2679 82.613 25.1331C82.574 25.074 82.5393 25.0123 82.5091 24.9484C82.4745 24.8907 82.4399 24.8214 82.4024 24.7579C82.3534 24.7085 82.3133 24.6509 82.2841 24.5877C82.2437 24.5242 82.2119 24.4694 82.1715 24.4174C82.1182 24.4447 82.0633 24.4688 82.0071 24.4896L81.8397 24.5761C81.8213 24.5844 81.8019 24.5902 81.782 24.5935L81.7156 24.6252C81.6721 24.6425 81.6265 24.6541 81.58 24.6598C81.5425 24.6771 81.505 24.6858 81.4703 24.706L79.6553 31.9631H75.9474L79.4331 18H83.1497L82.4457 20.8278C82.559 20.7959 82.6708 20.7584 82.7804 20.7153L83.1266 20.5624C83.2478 20.496 83.3748 20.4412 83.4989 20.3806C83.6329 20.3249 83.763 20.2603 83.8884 20.1872C84.0154 20.1238 84.1423 20.0545 84.2664 19.9795C84.3905 19.9045 84.5175 19.8294 84.6415 19.7544C84.7656 19.6794 84.8868 19.5755 85.0196 19.4889C85.1523 19.4024 85.2619 19.3187 85.3831 19.2292C85.6197 19.0388 85.8448 18.8455 86.0612 18.6521C86.2777 18.4516 86.4793 18.2356 86.6643 18.0058H91.1225C91.0215 18.1472 90.9089 18.2943 90.7935 18.4444V18.4242ZM89.1892 14.6932L90.9753 7.19077C90.9253 7.2147 90.878 7.2437 90.8339 7.27733L90.6896 7.35524L90.5511 7.44758C90.505 7.48221 90.4588 7.51395 90.4213 7.54569C90.3838 7.57743 90.3203 7.61494 90.2655 7.64668C90.2106 7.67842 90.1731 7.71593 90.1298 7.75345C90.0866 7.79096 90.0317 7.82847 89.9798 7.8631C89.9326 7.90426 89.8825 7.94187 89.8297 7.97563C89.6653 8.1026 89.4921 8.23245 89.3334 8.36518C89.1747 8.49792 89.0131 8.65373 88.8371 8.79801C88.6611 8.94229 88.5284 9.08657 88.3697 9.24238C88.211 9.3982 88.0523 9.53094 87.908 9.68387C87.8316 9.7558 87.7602 9.83293 87.6945 9.91472L87.4925 10.1369C87.429 10.2033 87.3568 10.2725 87.2991 10.3418C87.2359 10.4106 87.1789 10.485 87.1289 10.564L86.1565 14.6816H83.5162L85.9891 4.19558H88.6236L87.9628 6.98589L88.2023 6.73774C88.2935 6.63664 88.3898 6.54032 88.4909 6.44918C88.6063 6.34819 88.713 6.24142 88.8256 6.14332L89.1892 5.85476C89.2757 5.78262 89.3623 5.71048 89.4546 5.63835L89.7259 5.43347C89.8269 5.36133 89.9163 5.2892 90.0144 5.21994L90.303 5.0093C90.4155 4.92562 90.5338 4.84482 90.6492 4.76691C90.7647 4.689 90.8974 4.61109 91.0157 4.54473C91.1208 4.47118 91.2318 4.40651 91.3475 4.35139C91.4458 4.29345 91.5469 4.24049 91.6505 4.19269H94.2879L91.8121 14.6614L89.1892 14.6932ZM66.3934 12.4569C66.5373 12.4314 66.6752 12.3796 66.8003 12.3039C66.9019 12.2383 66.9984 12.165 67.0888 12.0846C67.1677 12.0169 67.2375 11.9393 67.2966 11.8538C67.3225 11.8134 67.3485 11.7817 67.3687 11.7441C67.3889 11.7066 67.4062 11.6691 67.4235 11.6287C67.4377 11.5955 67.4475 11.5606 67.4524 11.5248C67.4524 11.4931 67.4726 11.4585 67.487 11.4296C67.5266 11.2781 67.5383 11.1207 67.5216 10.9651C67.5154 10.8618 67.4815 10.7622 67.4235 10.6765C67.364 10.6033 67.2951 10.5383 67.2187 10.4832C67.1411 10.4356 67.0589 10.396 66.9734 10.3649C66.9181 10.3476 66.8609 10.3369 66.8031 10.3331H66.6502H66.5694C66.5434 10.3332 66.5177 10.3272 66.4944 10.3158H65.4065L65.9173 8.12568H67.0715C67.0859 8.12568 67.109 8.12568 67.1148 8.11125H67.2071C67.2605 8.10611 67.3136 8.09744 67.3658 8.08528C67.426 8.0777 67.485 8.06318 67.5418 8.042C67.5951 8.02201 67.6471 7.99888 67.6977 7.97275L67.8679 7.88618C67.9735 7.82376 68.0634 7.73786 68.1305 7.63514C68.2071 7.51449 68.26 7.38031 68.2863 7.23982C68.333 7.10327 68.341 6.95646 68.3094 6.81565C68.2983 6.76369 68.2749 6.71514 68.2413 6.67399C68.2077 6.63285 68.1648 6.6003 68.1161 6.57903C68.0127 6.53169 67.9056 6.49308 67.7958 6.46361C67.6758 6.43304 67.553 6.41467 67.4293 6.40878H65.8365L64.3937 12.5002H65.8365C66.0183 12.4997 66.1997 12.4843 66.379 12.454L66.3934 12.4569ZM54.8599 12.3241C55.1371 12.4907 55.4573 12.572 55.7804 12.5579C56.1345 12.5616 56.4846 12.4815 56.8019 12.3241C57.1249 12.1596 57.4039 11.9201 57.6156 11.6258C57.855 11.3126 58.0592 10.9739 58.2244 10.6159C58.3911 10.2437 58.5243 9.85745 58.6226 9.46169C58.7055 9.0821 58.7538 8.69578 58.7669 8.30747C58.7798 7.96711 58.7369 7.62693 58.6399 7.30042C58.5778 7.01394 58.4072 6.76264 58.1638 6.59923C57.8936 6.43092 57.5787 6.34842 57.2607 6.36262C56.9004 6.35676 56.544 6.43793 56.2219 6.59923C55.9008 6.75236 55.6201 6.97868 55.4024 7.26002C55.1712 7.57193 54.9775 7.90994 54.8253 8.26707C54.6559 8.63732 54.5253 9.02412 54.4357 9.42129C54.3425 9.79957 54.2874 10.1862 54.2712 10.5755C54.2662 10.9162 54.308 11.2561 54.3953 11.5854C54.4673 11.8683 54.6382 12.1161 54.8772 12.2837" fill="#0066B3"/>
<path fill-rule="evenodd" clip-rule="evenodd" d="M11.975 17.8382C11.9778 16.9538 12.1872 16.0822 12.5868 15.2932C7.87755 13.0655 3.88973 11.1813 2.57104 10.5349C1.44141 12.7838 0.84784 15.2637 0.836826 17.7803C0.825812 20.2969 1.39766 22.7819 2.50756 25.0405C3.70795 24.4634 7.74482 22.5619 12.5377 20.2996C12.1684 19.5316 11.9761 18.6904 11.975 17.8382V17.8382ZM33.0193 9.81065C32.7711 9.37494 32.5085 8.94499 32.2257 8.54102L22.992 14.5141C23.0959 14.6641 23.194 14.8171 23.2806 14.9758L33.0193 9.81065ZM3.00965 9.71543L12.7368 14.9873C12.8147 14.8546 12.8926 14.7247 12.9792 14.6007L3.74546 8.54102C3.48768 8.92383 3.24241 9.31819 3.00965 9.72409V9.71543ZM2.88557 25.7879C3.1193 26.2063 3.37322 26.6132 3.64158 27.0085L12.9359 21.0094C12.8493 20.8767 12.7628 20.7411 12.6849 20.5997L2.88557 25.7879ZM33.3684 10.4945C32.093 11.0716 28.0965 12.9559 23.37 15.1806C23.793 15.9791 24.0189 16.8671 24.029 17.7706C24.039 18.6741 23.8329 19.567 23.4277 20.3746L33.4434 25.0636C34.5626 22.797 35.1385 20.3009 35.1255 17.7731C35.1125 15.2453 34.5109 12.7552 33.3684 10.5003V10.4945ZM22.9603 21.171L32.168 27.2307C32.4566 26.818 32.7249 26.391 32.9731 25.9553L23.2748 20.6891C23.1825 20.8536 23.0843 21.0123 22.9718 21.1653L22.9603 21.171Z" fill="url(#paint0_radial_3922_548)"/>
</g>
<defs>
<radialGradient id="paint0_radial_3922_548" cx="0" cy="0" r="1" gradientUnits="userSpaceOnUse" gradientTransform="translate(18.0976 17.6619) scale(16.4745 16.1417)">
<stop offset="0.37" stop-color="#0066B3"/>
<stop offset="0.42" stop-color="#066AB5"/>
<stop offset="0.5" stop-color="#1875BA"/>
<stop offset="0.6" stop-color="#3686C3"/>
<stop offset="0.7" stop-color="#5F9FCF"/>
<stop offset="0.81" stop-color="#94BFDF"/>
<stop offset="0.93" stop-color="#D3E5F2"/>
<stop offset="1" stop-color="white"/>
</radialGradient>
<clipPath id="clip0_3922_548">
<rect width="98.2959" height="36" fill="white"/>
</clipPath>
</defs>
</svg>
